<svg height="142pt" preserveAspectRatio="xMidYMid meet" viewBox="0 0 142 142" width="142pt" xmlns="http://www.w3.org/2000/svg"><g transform="matrix(.1 0 0 -.1 0 142)"><path d="m430 1012c-20-14-25-25-25-57 0-37-3-41-43-60-24-12-45-25-45-30-1-6 18-12 43-15l45-5v-180c1-200 9-236 56-260 55-29 151-12 193 34l19 20-65-6c-58-5-67-3-85 17-27 29-29 39-28 220v155l75 5c67 4 75 7 75 25s-8 21-75 25l-75 5 1 63c0 56-2 62-20 61-12 0-32-8-46-17z"/><path d="m815 895c-49-25-75-64-75-114 0-61 33-101 129-156 42-25 84-58 93-73 40-67-27-135-113-117-21 5-31 17-46 58-33 85-56 73-69-34l-6-47 51-11c152-33 269 15 286 116 10 62-34 122-124 167-79 40-111 73-111 111 0 44 39 76 87 73 40-3 46-9 63-63 7-22 15-44 17-48 10-17 32 16 38 56 4 23 9 50 11 59 4 13-5 19-33 27-56 16-163 13-198-4z"/></g></svg>